%TF.GenerationSoftware,KiCad,Pcbnew,(6.0.10-0)*%
%TF.CreationDate,2023-02-24T22:40:58-08:00*%
%TF.ProjectId,PCB II Design,50434220-4949-4204-9465-7369676e2e6b,rev?*%
%TF.SameCoordinates,Original*%
%TF.FileFunction,Legend,Top*%
%TF.FilePolarity,Positive*%
%FSLAX46Y46*%
G04 Gerber Fmt 4.6, Leading zero omitted, Abs format (unit mm)*
G04 Created by KiCad (PCBNEW (6.0.10-0)) date 2023-02-24 22:40:58*
%MOMM*%
%LPD*%
G01*
G04 APERTURE LIST*
%ADD10C,0.100000*%
%ADD11C,0.150000*%
%ADD12C,0.300000*%
%ADD13C,0.400000*%
%TA.AperFunction,Profile*%
%ADD14C,0.100000*%
%TD*%
%ADD15C,0.120000*%
G04 APERTURE END LIST*
D10*
D11*
X177002200Y-166007200D02*
X177002200Y-198007200D01*
X285002200Y-198007200D01*
X285002200Y-166007200D01*
X177002200Y-166007200D01*
D10*
D11*
X10000000Y-10000000D02*
X10000000Y-200007200D01*
X287002200Y-200007200D01*
X287002200Y-10000000D01*
X10000000Y-10000000D01*
D10*
D11*
X12000000Y-12000000D02*
X12000000Y-198007200D01*
X285002200Y-198007200D01*
X285002200Y-12000000D01*
X12000000Y-12000000D01*
D10*
D11*
X60000000Y-12000000D02*
X60000000Y-10000000D01*
D10*
D11*
X110000000Y-12000000D02*
X110000000Y-10000000D01*
D10*
D11*
X160000000Y-12000000D02*
X160000000Y-10000000D01*
D10*
D11*
X210000000Y-12000000D02*
X210000000Y-10000000D01*
D10*
D11*
X260000000Y-12000000D02*
X260000000Y-10000000D01*
D10*
D11*
X36065476Y-11588095D02*
X35322619Y-11588095D01*
X35694047Y-11588095D02*
X35694047Y-10288095D01*
X35570238Y-10473809D01*
X35446428Y-10597619D01*
X35322619Y-10659523D01*
D10*
D11*
X85322619Y-10411904D02*
X85384523Y-10350000D01*
X85508333Y-10288095D01*
X85817857Y-10288095D01*
X85941666Y-10350000D01*
X86003571Y-10411904D01*
X86065476Y-10535714D01*
X86065476Y-10659523D01*
X86003571Y-10845238D01*
X85260714Y-11588095D01*
X86065476Y-11588095D01*
D10*
D11*
X135260714Y-10288095D02*
X136065476Y-10288095D01*
X135632142Y-10783333D01*
X135817857Y-10783333D01*
X135941666Y-10845238D01*
X136003571Y-10907142D01*
X136065476Y-11030952D01*
X136065476Y-11340476D01*
X136003571Y-11464285D01*
X135941666Y-11526190D01*
X135817857Y-11588095D01*
X135446428Y-11588095D01*
X135322619Y-11526190D01*
X135260714Y-11464285D01*
D10*
D11*
X185941666Y-10721428D02*
X185941666Y-11588095D01*
X185632142Y-10226190D02*
X185322619Y-11154761D01*
X186127380Y-11154761D01*
D10*
D11*
X236003571Y-10288095D02*
X235384523Y-10288095D01*
X235322619Y-10907142D01*
X235384523Y-10845238D01*
X235508333Y-10783333D01*
X235817857Y-10783333D01*
X235941666Y-10845238D01*
X236003571Y-10907142D01*
X236065476Y-11030952D01*
X236065476Y-11340476D01*
X236003571Y-11464285D01*
X235941666Y-11526190D01*
X235817857Y-11588095D01*
X235508333Y-11588095D01*
X235384523Y-11526190D01*
X235322619Y-11464285D01*
D10*
D11*
X285941666Y-10288095D02*
X285694047Y-10288095D01*
X285570238Y-10350000D01*
X285508333Y-10411904D01*
X285384523Y-10597619D01*
X285322619Y-10845238D01*
X285322619Y-11340476D01*
X285384523Y-11464285D01*
X285446428Y-11526190D01*
X285570238Y-11588095D01*
X285817857Y-11588095D01*
X285941666Y-11526190D01*
X286003571Y-11464285D01*
X286065476Y-11340476D01*
X286065476Y-11030952D01*
X286003571Y-10907142D01*
X285941666Y-10845238D01*
X285817857Y-10783333D01*
X285570238Y-10783333D01*
X285446428Y-10845238D01*
X285384523Y-10907142D01*
X285322619Y-11030952D01*
D10*
D11*
X60000000Y-198007200D02*
X60000000Y-200007200D01*
D10*
D11*
X110000000Y-198007200D02*
X110000000Y-200007200D01*
D10*
D11*
X160000000Y-198007200D02*
X160000000Y-200007200D01*
D10*
D11*
X210000000Y-198007200D02*
X210000000Y-200007200D01*
D10*
D11*
X260000000Y-198007200D02*
X260000000Y-200007200D01*
D10*
D11*
X36065476Y-199595295D02*
X35322619Y-199595295D01*
X35694047Y-199595295D02*
X35694047Y-198295295D01*
X35570238Y-198481009D01*
X35446428Y-198604819D01*
X35322619Y-198666723D01*
D10*
D11*
X85322619Y-198419104D02*
X85384523Y-198357200D01*
X85508333Y-198295295D01*
X85817857Y-198295295D01*
X85941666Y-198357200D01*
X86003571Y-198419104D01*
X86065476Y-198542914D01*
X86065476Y-198666723D01*
X86003571Y-198852438D01*
X85260714Y-199595295D01*
X86065476Y-199595295D01*
D10*
D11*
X135260714Y-198295295D02*
X136065476Y-198295295D01*
X135632142Y-198790533D01*
X135817857Y-198790533D01*
X135941666Y-198852438D01*
X136003571Y-198914342D01*
X136065476Y-199038152D01*
X136065476Y-199347676D01*
X136003571Y-199471485D01*
X135941666Y-199533390D01*
X135817857Y-199595295D01*
X135446428Y-199595295D01*
X135322619Y-199533390D01*
X135260714Y-199471485D01*
D10*
D11*
X185941666Y-198728628D02*
X185941666Y-199595295D01*
X185632142Y-198233390D02*
X185322619Y-199161961D01*
X186127380Y-199161961D01*
D10*
D11*
X236003571Y-198295295D02*
X235384523Y-198295295D01*
X235322619Y-198914342D01*
X235384523Y-198852438D01*
X235508333Y-198790533D01*
X235817857Y-198790533D01*
X235941666Y-198852438D01*
X236003571Y-198914342D01*
X236065476Y-199038152D01*
X236065476Y-199347676D01*
X236003571Y-199471485D01*
X235941666Y-199533390D01*
X235817857Y-199595295D01*
X235508333Y-199595295D01*
X235384523Y-199533390D01*
X235322619Y-199471485D01*
D10*
D11*
X285941666Y-198295295D02*
X285694047Y-198295295D01*
X285570238Y-198357200D01*
X285508333Y-198419104D01*
X285384523Y-198604819D01*
X285322619Y-198852438D01*
X285322619Y-199347676D01*
X285384523Y-199471485D01*
X285446428Y-199533390D01*
X285570238Y-199595295D01*
X285817857Y-199595295D01*
X285941666Y-199533390D01*
X286003571Y-199471485D01*
X286065476Y-199347676D01*
X286065476Y-199038152D01*
X286003571Y-198914342D01*
X285941666Y-198852438D01*
X285817857Y-198790533D01*
X285570238Y-198790533D01*
X285446428Y-198852438D01*
X285384523Y-198914342D01*
X285322619Y-199038152D01*
D10*
D11*
X10000000Y-60000000D02*
X12000000Y-60000000D01*
D10*
D11*
X10000000Y-110000000D02*
X12000000Y-110000000D01*
D10*
D11*
X10000000Y-160000000D02*
X12000000Y-160000000D01*
D10*
D11*
X10690476Y-35216666D02*
X11309523Y-35216666D01*
X10566666Y-35588095D02*
X11000000Y-34288095D01*
X11433333Y-35588095D01*
D10*
D11*
X11092857Y-84907142D02*
X11278571Y-84969047D01*
X11340476Y-85030952D01*
X11402380Y-85154761D01*
X11402380Y-85340476D01*
X11340476Y-85464285D01*
X11278571Y-85526190D01*
X11154761Y-85588095D01*
X10659523Y-85588095D01*
X10659523Y-84288095D01*
X11092857Y-84288095D01*
X11216666Y-84350000D01*
X11278571Y-84411904D01*
X11340476Y-84535714D01*
X11340476Y-84659523D01*
X11278571Y-84783333D01*
X11216666Y-84845238D01*
X11092857Y-84907142D01*
X10659523Y-84907142D01*
D10*
D11*
X11402380Y-135464285D02*
X11340476Y-135526190D01*
X11154761Y-135588095D01*
X11030952Y-135588095D01*
X10845238Y-135526190D01*
X10721428Y-135402380D01*
X10659523Y-135278571D01*
X10597619Y-135030952D01*
X10597619Y-134845238D01*
X10659523Y-134597619D01*
X10721428Y-134473809D01*
X10845238Y-134350000D01*
X11030952Y-134288095D01*
X11154761Y-134288095D01*
X11340476Y-134350000D01*
X11402380Y-134411904D01*
D10*
D11*
X10659523Y-185588095D02*
X10659523Y-184288095D01*
X10969047Y-184288095D01*
X11154761Y-184350000D01*
X11278571Y-184473809D01*
X11340476Y-184597619D01*
X11402380Y-184845238D01*
X11402380Y-185030952D01*
X11340476Y-185278571D01*
X11278571Y-185402380D01*
X11154761Y-185526190D01*
X10969047Y-185588095D01*
X10659523Y-185588095D01*
D10*
D11*
X287002200Y-60000000D02*
X285002200Y-60000000D01*
D10*
D11*
X287002200Y-110000000D02*
X285002200Y-110000000D01*
D10*
D11*
X287002200Y-160000000D02*
X285002200Y-160000000D01*
D10*
D11*
X285692676Y-35216666D02*
X286311723Y-35216666D01*
X285568866Y-35588095D02*
X286002200Y-34288095D01*
X286435533Y-35588095D01*
D10*
D11*
X286095057Y-84907142D02*
X286280771Y-84969047D01*
X286342676Y-85030952D01*
X286404580Y-85154761D01*
X286404580Y-85340476D01*
X286342676Y-85464285D01*
X286280771Y-85526190D01*
X286156961Y-85588095D01*
X285661723Y-85588095D01*
X285661723Y-84288095D01*
X286095057Y-84288095D01*
X286218866Y-84350000D01*
X286280771Y-84411904D01*
X286342676Y-84535714D01*
X286342676Y-84659523D01*
X286280771Y-84783333D01*
X286218866Y-84845238D01*
X286095057Y-84907142D01*
X285661723Y-84907142D01*
D10*
D11*
X286404580Y-135464285D02*
X286342676Y-135526190D01*
X286156961Y-135588095D01*
X286033152Y-135588095D01*
X285847438Y-135526190D01*
X285723628Y-135402380D01*
X285661723Y-135278571D01*
X285599819Y-135030952D01*
X285599819Y-134845238D01*
X285661723Y-134597619D01*
X285723628Y-134473809D01*
X285847438Y-134350000D01*
X286033152Y-134288095D01*
X286156961Y-134288095D01*
X286342676Y-134350000D01*
X286404580Y-134411904D01*
D10*
D11*
X285661723Y-185588095D02*
X285661723Y-184288095D01*
X285971247Y-184288095D01*
X286156961Y-184350000D01*
X286280771Y-184473809D01*
X286342676Y-184597619D01*
X286404580Y-184845238D01*
X286404580Y-185030952D01*
X286342676Y-185278571D01*
X286280771Y-185402380D01*
X286156961Y-185526190D01*
X285971247Y-185588095D01*
X285661723Y-185588095D01*
D10*
D11*
X200434342Y-193785771D02*
X200434342Y-192285771D01*
X200791485Y-192285771D01*
X201005771Y-192357200D01*
X201148628Y-192500057D01*
X201220057Y-192642914D01*
X201291485Y-192928628D01*
X201291485Y-193142914D01*
X201220057Y-193428628D01*
X201148628Y-193571485D01*
X201005771Y-193714342D01*
X200791485Y-193785771D01*
X200434342Y-193785771D01*
X202577200Y-193785771D02*
X202577200Y-193000057D01*
X202505771Y-192857200D01*
X202362914Y-192785771D01*
X202077200Y-192785771D01*
X201934342Y-192857200D01*
X202577200Y-193714342D02*
X202434342Y-193785771D01*
X202077200Y-193785771D01*
X201934342Y-193714342D01*
X201862914Y-193571485D01*
X201862914Y-193428628D01*
X201934342Y-193285771D01*
X202077200Y-193214342D01*
X202434342Y-193214342D01*
X202577200Y-193142914D01*
X203077200Y-192785771D02*
X203648628Y-192785771D01*
X203291485Y-192285771D02*
X203291485Y-193571485D01*
X203362914Y-193714342D01*
X203505771Y-193785771D01*
X203648628Y-193785771D01*
X204720057Y-193714342D02*
X204577200Y-193785771D01*
X204291485Y-193785771D01*
X204148628Y-193714342D01*
X204077200Y-193571485D01*
X204077200Y-193000057D01*
X204148628Y-192857200D01*
X204291485Y-192785771D01*
X204577200Y-192785771D01*
X204720057Y-192857200D01*
X204791485Y-193000057D01*
X204791485Y-193142914D01*
X204077200Y-193285771D01*
X205434342Y-193642914D02*
X205505771Y-193714342D01*
X205434342Y-193785771D01*
X205362914Y-193714342D01*
X205434342Y-193642914D01*
X205434342Y-193785771D01*
X205434342Y-192857200D02*
X205505771Y-192928628D01*
X205434342Y-193000057D01*
X205362914Y-192928628D01*
X205434342Y-192857200D01*
X205434342Y-193000057D01*
D10*
D11*
X177002200Y-194507200D02*
X285002200Y-194507200D01*
D10*
D11*
X178434342Y-196585771D02*
X178434342Y-195085771D01*
X179291485Y-196585771D02*
X178648628Y-195728628D01*
X179291485Y-195085771D02*
X178434342Y-195942914D01*
X179934342Y-196585771D02*
X179934342Y-195585771D01*
X179934342Y-195085771D02*
X179862914Y-195157200D01*
X179934342Y-195228628D01*
X180005771Y-195157200D01*
X179934342Y-195085771D01*
X179934342Y-195228628D01*
X181505771Y-196442914D02*
X181434342Y-196514342D01*
X181220057Y-196585771D01*
X181077200Y-196585771D01*
X180862914Y-196514342D01*
X180720057Y-196371485D01*
X180648628Y-196228628D01*
X180577200Y-195942914D01*
X180577200Y-195728628D01*
X180648628Y-195442914D01*
X180720057Y-195300057D01*
X180862914Y-195157200D01*
X181077200Y-195085771D01*
X181220057Y-195085771D01*
X181434342Y-195157200D01*
X181505771Y-195228628D01*
X182791485Y-196585771D02*
X182791485Y-195800057D01*
X182720057Y-195657200D01*
X182577200Y-195585771D01*
X182291485Y-195585771D01*
X182148628Y-195657200D01*
X182791485Y-196514342D02*
X182648628Y-196585771D01*
X182291485Y-196585771D01*
X182148628Y-196514342D01*
X182077200Y-196371485D01*
X182077200Y-196228628D01*
X182148628Y-196085771D01*
X182291485Y-196014342D01*
X182648628Y-196014342D01*
X182791485Y-195942914D01*
X184148628Y-196585771D02*
X184148628Y-195085771D01*
X184148628Y-196514342D02*
X184005771Y-196585771D01*
X183720057Y-196585771D01*
X183577200Y-196514342D01*
X183505771Y-196442914D01*
X183434342Y-196300057D01*
X183434342Y-195871485D01*
X183505771Y-195728628D01*
X183577200Y-195657200D01*
X183720057Y-195585771D01*
X184005771Y-195585771D01*
X184148628Y-195657200D01*
X186005771Y-195800057D02*
X186505771Y-195800057D01*
X186720057Y-196585771D02*
X186005771Y-196585771D01*
X186005771Y-195085771D01*
X186720057Y-195085771D01*
X187362914Y-196442914D02*
X187434342Y-196514342D01*
X187362914Y-196585771D01*
X187291485Y-196514342D01*
X187362914Y-196442914D01*
X187362914Y-196585771D01*
X188077200Y-196585771D02*
X188077200Y-195085771D01*
X188434342Y-195085771D01*
X188648628Y-195157200D01*
X188791485Y-195300057D01*
X188862914Y-195442914D01*
X188934342Y-195728628D01*
X188934342Y-195942914D01*
X188862914Y-196228628D01*
X188791485Y-196371485D01*
X188648628Y-196514342D01*
X188434342Y-196585771D01*
X188077200Y-196585771D01*
X189577200Y-196442914D02*
X189648628Y-196514342D01*
X189577200Y-196585771D01*
X189505771Y-196514342D01*
X189577200Y-196442914D01*
X189577200Y-196585771D01*
X190220057Y-196157200D02*
X190934342Y-196157200D01*
X190077200Y-196585771D02*
X190577200Y-195085771D01*
X191077200Y-196585771D01*
X191577200Y-196442914D02*
X191648628Y-196514342D01*
X191577200Y-196585771D01*
X191505771Y-196514342D01*
X191577200Y-196442914D01*
X191577200Y-196585771D01*
X194577200Y-195585771D02*
X194577200Y-197085771D01*
X194577200Y-195657200D02*
X194720057Y-195585771D01*
X195005771Y-195585771D01*
X195148628Y-195657200D01*
X195220057Y-195728628D01*
X195291485Y-195871485D01*
X195291485Y-196300057D01*
X195220057Y-196442914D01*
X195148628Y-196514342D01*
X195005771Y-196585771D01*
X194720057Y-196585771D01*
X194577200Y-196514342D01*
X196577200Y-196514342D02*
X196434342Y-196585771D01*
X196148628Y-196585771D01*
X196005771Y-196514342D01*
X195934342Y-196442914D01*
X195862914Y-196300057D01*
X195862914Y-195871485D01*
X195934342Y-195728628D01*
X196005771Y-195657200D01*
X196148628Y-195585771D01*
X196434342Y-195585771D01*
X196577200Y-195657200D01*
X197220057Y-196585771D02*
X197220057Y-195085771D01*
X197220057Y-195657200D02*
X197362914Y-195585771D01*
X197648628Y-195585771D01*
X197791485Y-195657200D01*
X197862914Y-195728628D01*
X197934342Y-195871485D01*
X197934342Y-196300057D01*
X197862914Y-196442914D01*
X197791485Y-196514342D01*
X197648628Y-196585771D01*
X197362914Y-196585771D01*
X197220057Y-196514342D01*
X198577200Y-195585771D02*
X198577200Y-196585771D01*
X198577200Y-195728628D02*
X198648628Y-195657200D01*
X198791485Y-195585771D01*
X199005771Y-195585771D01*
X199148628Y-195657200D01*
X199220057Y-195800057D01*
X199220057Y-196585771D01*
X200505771Y-196514342D02*
X200362914Y-196585771D01*
X200077200Y-196585771D01*
X199934342Y-196514342D01*
X199862914Y-196371485D01*
X199862914Y-195800057D01*
X199934342Y-195657200D01*
X200077200Y-195585771D01*
X200362914Y-195585771D01*
X200505771Y-195657200D01*
X200577200Y-195800057D01*
X200577200Y-195942914D01*
X199862914Y-196085771D01*
X201077200Y-195585771D02*
X201362914Y-196585771D01*
X201648628Y-195871485D01*
X201934342Y-196585771D01*
X202220057Y-195585771D01*
X204362914Y-197157200D02*
X204291485Y-197085771D01*
X204148628Y-196871485D01*
X204077200Y-196728628D01*
X204005771Y-196514342D01*
X203934342Y-196157200D01*
X203934342Y-195871485D01*
X204005771Y-195514342D01*
X204077200Y-195300057D01*
X204148628Y-195157200D01*
X204291485Y-194942914D01*
X204362914Y-194871485D01*
X205577200Y-195085771D02*
X205291485Y-195085771D01*
X205148628Y-195157200D01*
X205077200Y-195228628D01*
X204934342Y-195442914D01*
X204862914Y-195728628D01*
X204862914Y-196300057D01*
X204934342Y-196442914D01*
X205005771Y-196514342D01*
X205148628Y-196585771D01*
X205434342Y-196585771D01*
X205577200Y-196514342D01*
X205648628Y-196442914D01*
X205720057Y-196300057D01*
X205720057Y-195942914D01*
X205648628Y-195800057D01*
X205577200Y-195728628D01*
X205434342Y-195657200D01*
X205148628Y-195657200D01*
X205005771Y-195728628D01*
X204934342Y-195800057D01*
X204862914Y-195942914D01*
X206362914Y-196442914D02*
X206434342Y-196514342D01*
X206362914Y-196585771D01*
X206291485Y-196514342D01*
X206362914Y-196442914D01*
X206362914Y-196585771D01*
X207362914Y-195085771D02*
X207505771Y-195085771D01*
X207648628Y-195157200D01*
X207720057Y-195228628D01*
X207791485Y-195371485D01*
X207862914Y-195657200D01*
X207862914Y-196014342D01*
X207791485Y-196300057D01*
X207720057Y-196442914D01*
X207648628Y-196514342D01*
X207505771Y-196585771D01*
X207362914Y-196585771D01*
X207220057Y-196514342D01*
X207148628Y-196442914D01*
X207077200Y-196300057D01*
X207005771Y-196014342D01*
X207005771Y-195657200D01*
X207077200Y-195371485D01*
X207148628Y-195228628D01*
X207220057Y-195157200D01*
X207362914Y-195085771D01*
X208505771Y-196442914D02*
X208577200Y-196514342D01*
X208505771Y-196585771D01*
X208434342Y-196514342D01*
X208505771Y-196442914D01*
X208505771Y-196585771D01*
X210005771Y-196585771D02*
X209148628Y-196585771D01*
X209577200Y-196585771D02*
X209577200Y-195085771D01*
X209434342Y-195300057D01*
X209291485Y-195442914D01*
X209148628Y-195514342D01*
X210934342Y-195085771D02*
X211077200Y-195085771D01*
X211220057Y-195157200D01*
X211291485Y-195228628D01*
X211362914Y-195371485D01*
X211434342Y-195657200D01*
X211434342Y-196014342D01*
X211362914Y-196300057D01*
X211291485Y-196442914D01*
X211220057Y-196514342D01*
X211077200Y-196585771D01*
X210934342Y-196585771D01*
X210791485Y-196514342D01*
X210720057Y-196442914D01*
X210648628Y-196300057D01*
X210577200Y-196014342D01*
X210577200Y-195657200D01*
X210648628Y-195371485D01*
X210720057Y-195228628D01*
X210791485Y-195157200D01*
X210934342Y-195085771D01*
X212077200Y-196014342D02*
X213220057Y-196014342D01*
X214220057Y-195085771D02*
X214362914Y-195085771D01*
X214505771Y-195157200D01*
X214577200Y-195228628D01*
X214648628Y-195371485D01*
X214720057Y-195657200D01*
X214720057Y-196014342D01*
X214648628Y-196300057D01*
X214577200Y-196442914D01*
X214505771Y-196514342D01*
X214362914Y-196585771D01*
X214220057Y-196585771D01*
X214077200Y-196514342D01*
X214005771Y-196442914D01*
X213934342Y-196300057D01*
X213862914Y-196014342D01*
X213862914Y-195657200D01*
X213934342Y-195371485D01*
X214005771Y-195228628D01*
X214077200Y-195157200D01*
X214220057Y-195085771D01*
X215220057Y-197157200D02*
X215291485Y-197085771D01*
X215434342Y-196871485D01*
X215505771Y-196728628D01*
X215577200Y-196514342D01*
X215648628Y-196157200D01*
X215648628Y-195871485D01*
X215577200Y-195514342D01*
X215505771Y-195300057D01*
X215434342Y-195157200D01*
X215291485Y-194942914D01*
X215220057Y-194871485D01*
D10*
D11*
X177002200Y-191507200D02*
X285002200Y-191507200D01*
D10*
D12*
X264411485Y-193785771D02*
X263911485Y-193071485D01*
X263554342Y-193785771D02*
X263554342Y-192285771D01*
X264125771Y-192285771D01*
X264268628Y-192357200D01*
X264340057Y-192428628D01*
X264411485Y-192571485D01*
X264411485Y-192785771D01*
X264340057Y-192928628D01*
X264268628Y-193000057D01*
X264125771Y-193071485D01*
X263554342Y-193071485D01*
X265625771Y-193714342D02*
X265482914Y-193785771D01*
X265197200Y-193785771D01*
X265054342Y-193714342D01*
X264982914Y-193571485D01*
X264982914Y-193000057D01*
X265054342Y-192857200D01*
X265197200Y-192785771D01*
X265482914Y-192785771D01*
X265625771Y-192857200D01*
X265697200Y-193000057D01*
X265697200Y-193142914D01*
X264982914Y-193285771D01*
X266197200Y-192785771D02*
X266554342Y-193785771D01*
X266911485Y-192785771D01*
X267482914Y-193642914D02*
X267554342Y-193714342D01*
X267482914Y-193785771D01*
X267411485Y-193714342D01*
X267482914Y-193642914D01*
X267482914Y-193785771D01*
X267482914Y-192857200D02*
X267554342Y-192928628D01*
X267482914Y-193000057D01*
X267411485Y-192928628D01*
X267482914Y-192857200D01*
X267482914Y-193000057D01*
D10*
D11*
X178362914Y-193714342D02*
X178577200Y-193785771D01*
X178934342Y-193785771D01*
X179077200Y-193714342D01*
X179148628Y-193642914D01*
X179220057Y-193500057D01*
X179220057Y-193357200D01*
X179148628Y-193214342D01*
X179077200Y-193142914D01*
X178934342Y-193071485D01*
X178648628Y-193000057D01*
X178505771Y-192928628D01*
X178434342Y-192857200D01*
X178362914Y-192714342D01*
X178362914Y-192571485D01*
X178434342Y-192428628D01*
X178505771Y-192357200D01*
X178648628Y-192285771D01*
X179005771Y-192285771D01*
X179220057Y-192357200D01*
X179862914Y-193785771D02*
X179862914Y-192785771D01*
X179862914Y-192285771D02*
X179791485Y-192357200D01*
X179862914Y-192428628D01*
X179934342Y-192357200D01*
X179862914Y-192285771D01*
X179862914Y-192428628D01*
X180434342Y-192785771D02*
X181220057Y-192785771D01*
X180434342Y-193785771D01*
X181220057Y-193785771D01*
X182362914Y-193714342D02*
X182220057Y-193785771D01*
X181934342Y-193785771D01*
X181791485Y-193714342D01*
X181720057Y-193571485D01*
X181720057Y-193000057D01*
X181791485Y-192857200D01*
X181934342Y-192785771D01*
X182220057Y-192785771D01*
X182362914Y-192857200D01*
X182434342Y-193000057D01*
X182434342Y-193142914D01*
X181720057Y-193285771D01*
X183077200Y-193642914D02*
X183148628Y-193714342D01*
X183077200Y-193785771D01*
X183005771Y-193714342D01*
X183077200Y-193642914D01*
X183077200Y-193785771D01*
X183077200Y-192857200D02*
X183148628Y-192928628D01*
X183077200Y-193000057D01*
X183005771Y-192928628D01*
X183077200Y-192857200D01*
X183077200Y-193000057D01*
X184862914Y-193357200D02*
X185577200Y-193357200D01*
X184720057Y-193785771D02*
X185220057Y-192285771D01*
X185720057Y-193785771D01*
X186862914Y-192785771D02*
X186862914Y-193785771D01*
X186505771Y-192214342D02*
X186148628Y-193285771D01*
X187077200Y-193285771D01*
D10*
D11*
X263434342Y-196585771D02*
X263434342Y-195085771D01*
X264791485Y-196585771D02*
X264791485Y-195085771D01*
X264791485Y-196514342D02*
X264648628Y-196585771D01*
X264362914Y-196585771D01*
X264220057Y-196514342D01*
X264148628Y-196442914D01*
X264077200Y-196300057D01*
X264077200Y-195871485D01*
X264148628Y-195728628D01*
X264220057Y-195657200D01*
X264362914Y-195585771D01*
X264648628Y-195585771D01*
X264791485Y-195657200D01*
X265505771Y-196442914D02*
X265577200Y-196514342D01*
X265505771Y-196585771D01*
X265434342Y-196514342D01*
X265505771Y-196442914D01*
X265505771Y-196585771D01*
X265505771Y-195657200D02*
X265577200Y-195728628D01*
X265505771Y-195800057D01*
X265434342Y-195728628D01*
X265505771Y-195657200D01*
X265505771Y-195800057D01*
X268148628Y-196585771D02*
X267291485Y-196585771D01*
X267720057Y-196585771D02*
X267720057Y-195085771D01*
X267577200Y-195300057D01*
X267434342Y-195442914D01*
X267291485Y-195514342D01*
X269862914Y-195014342D02*
X268577200Y-196942914D01*
X271148628Y-196585771D02*
X270291485Y-196585771D01*
X270720057Y-196585771D02*
X270720057Y-195085771D01*
X270577200Y-195300057D01*
X270434342Y-195442914D01*
X270291485Y-195514342D01*
D10*
D11*
X177002200Y-187507200D02*
X285002200Y-187507200D01*
D10*
D13*
X178714580Y-188211961D02*
X179857438Y-188211961D01*
X179036009Y-190211961D02*
X179286009Y-188211961D01*
X180274104Y-190211961D02*
X180440771Y-188878628D01*
X180524104Y-188211961D02*
X180416961Y-188307200D01*
X180500295Y-188402438D01*
X180607438Y-188307200D01*
X180524104Y-188211961D01*
X180500295Y-188402438D01*
X181107438Y-188878628D02*
X181869342Y-188878628D01*
X181476485Y-188211961D02*
X181262200Y-189926247D01*
X181333628Y-190116723D01*
X181512200Y-190211961D01*
X181702676Y-190211961D01*
X182655057Y-190211961D02*
X182476485Y-190116723D01*
X182405057Y-189926247D01*
X182619342Y-188211961D01*
X184190771Y-190116723D02*
X183988390Y-190211961D01*
X183607438Y-190211961D01*
X183428866Y-190116723D01*
X183357438Y-189926247D01*
X183452676Y-189164342D01*
X183571723Y-188973866D01*
X183774104Y-188878628D01*
X184155057Y-188878628D01*
X184333628Y-188973866D01*
X184405057Y-189164342D01*
X184381247Y-189354819D01*
X183405057Y-189545295D01*
X185155057Y-190021485D02*
X185238390Y-190116723D01*
X185131247Y-190211961D01*
X185047914Y-190116723D01*
X185155057Y-190021485D01*
X185131247Y-190211961D01*
X185286009Y-188973866D02*
X185369342Y-189069104D01*
X185262200Y-189164342D01*
X185178866Y-189069104D01*
X185286009Y-188973866D01*
X185262200Y-189164342D01*
D10*
D11*
X178934342Y-185600057D02*
X178434342Y-185600057D01*
X178434342Y-186385771D02*
X178434342Y-184885771D01*
X179148628Y-184885771D01*
X179720057Y-186385771D02*
X179720057Y-185385771D01*
X179720057Y-184885771D02*
X179648628Y-184957200D01*
X179720057Y-185028628D01*
X179791485Y-184957200D01*
X179720057Y-184885771D01*
X179720057Y-185028628D01*
X180648628Y-186385771D02*
X180505771Y-186314342D01*
X180434342Y-186171485D01*
X180434342Y-184885771D01*
X181791485Y-186314342D02*
X181648628Y-186385771D01*
X181362914Y-186385771D01*
X181220057Y-186314342D01*
X181148628Y-186171485D01*
X181148628Y-185600057D01*
X181220057Y-185457200D01*
X181362914Y-185385771D01*
X181648628Y-185385771D01*
X181791485Y-185457200D01*
X181862914Y-185600057D01*
X181862914Y-185742914D01*
X181148628Y-185885771D01*
X182505771Y-186242914D02*
X182577200Y-186314342D01*
X182505771Y-186385771D01*
X182434342Y-186314342D01*
X182505771Y-186242914D01*
X182505771Y-186385771D01*
X182505771Y-185457200D02*
X182577200Y-185528628D01*
X182505771Y-185600057D01*
X182434342Y-185528628D01*
X182505771Y-185457200D01*
X182505771Y-185600057D01*
X184362914Y-186385771D02*
X184362914Y-184885771D01*
X184934342Y-184885771D01*
X185077200Y-184957200D01*
X185148628Y-185028628D01*
X185220057Y-185171485D01*
X185220057Y-185385771D01*
X185148628Y-185528628D01*
X185077200Y-185600057D01*
X184934342Y-185671485D01*
X184362914Y-185671485D01*
X186720057Y-186242914D02*
X186648628Y-186314342D01*
X186434342Y-186385771D01*
X186291485Y-186385771D01*
X186077200Y-186314342D01*
X185934342Y-186171485D01*
X185862914Y-186028628D01*
X185791485Y-185742914D01*
X185791485Y-185528628D01*
X185862914Y-185242914D01*
X185934342Y-185100057D01*
X186077200Y-184957200D01*
X186291485Y-184885771D01*
X186434342Y-184885771D01*
X186648628Y-184957200D01*
X186720057Y-185028628D01*
X187862914Y-185600057D02*
X188077200Y-185671485D01*
X188148628Y-185742914D01*
X188220057Y-185885771D01*
X188220057Y-186100057D01*
X188148628Y-186242914D01*
X188077200Y-186314342D01*
X187934342Y-186385771D01*
X187362914Y-186385771D01*
X187362914Y-184885771D01*
X187862914Y-184885771D01*
X188005771Y-184957200D01*
X188077200Y-185028628D01*
X188148628Y-185171485D01*
X188148628Y-185314342D01*
X188077200Y-185457200D01*
X188005771Y-185528628D01*
X187862914Y-185600057D01*
X187362914Y-185600057D01*
X190005771Y-186385771D02*
X190005771Y-184885771D01*
X190720057Y-186385771D02*
X190720057Y-184885771D01*
X192577200Y-186385771D02*
X192577200Y-184885771D01*
X192934342Y-184885771D01*
X193148628Y-184957200D01*
X193291485Y-185100057D01*
X193362914Y-185242914D01*
X193434342Y-185528628D01*
X193434342Y-185742914D01*
X193362914Y-186028628D01*
X193291485Y-186171485D01*
X193148628Y-186314342D01*
X192934342Y-186385771D01*
X192577200Y-186385771D01*
X194648628Y-186314342D02*
X194505771Y-186385771D01*
X194220057Y-186385771D01*
X194077200Y-186314342D01*
X194005771Y-186171485D01*
X194005771Y-185600057D01*
X194077200Y-185457200D01*
X194220057Y-185385771D01*
X194505771Y-185385771D01*
X194648628Y-185457200D01*
X194720057Y-185600057D01*
X194720057Y-185742914D01*
X194005771Y-185885771D01*
X195291485Y-186314342D02*
X195434342Y-186385771D01*
X195720057Y-186385771D01*
X195862914Y-186314342D01*
X195934342Y-186171485D01*
X195934342Y-186100057D01*
X195862914Y-185957200D01*
X195720057Y-185885771D01*
X195505771Y-185885771D01*
X195362914Y-185814342D01*
X195291485Y-185671485D01*
X195291485Y-185600057D01*
X195362914Y-185457200D01*
X195505771Y-185385771D01*
X195720057Y-185385771D01*
X195862914Y-185457200D01*
X196577200Y-186385771D02*
X196577200Y-185385771D01*
X196577200Y-184885771D02*
X196505771Y-184957200D01*
X196577200Y-185028628D01*
X196648628Y-184957200D01*
X196577200Y-184885771D01*
X196577200Y-185028628D01*
X197934342Y-185385771D02*
X197934342Y-186600057D01*
X197862914Y-186742914D01*
X197791485Y-186814342D01*
X197648628Y-186885771D01*
X197434342Y-186885771D01*
X197291485Y-186814342D01*
X197934342Y-186314342D02*
X197791485Y-186385771D01*
X197505771Y-186385771D01*
X197362914Y-186314342D01*
X197291485Y-186242914D01*
X197220057Y-186100057D01*
X197220057Y-185671485D01*
X197291485Y-185528628D01*
X197362914Y-185457200D01*
X197505771Y-185385771D01*
X197791485Y-185385771D01*
X197934342Y-185457200D01*
X198648628Y-185385771D02*
X198648628Y-186385771D01*
X198648628Y-185528628D02*
X198720057Y-185457200D01*
X198862914Y-185385771D01*
X199077200Y-185385771D01*
X199220057Y-185457200D01*
X199291485Y-185600057D01*
X199291485Y-186385771D01*
X200005771Y-186242914D02*
X200077200Y-186314342D01*
X200005771Y-186385771D01*
X199934342Y-186314342D01*
X200005771Y-186242914D01*
X200005771Y-186385771D01*
X200720057Y-186385771D02*
X200720057Y-184885771D01*
X200862914Y-185814342D02*
X201291485Y-186385771D01*
X201291485Y-185385771D02*
X200720057Y-185957200D01*
X201934342Y-186385771D02*
X201934342Y-185385771D01*
X201934342Y-184885771D02*
X201862914Y-184957200D01*
X201934342Y-185028628D01*
X202005771Y-184957200D01*
X201934342Y-184885771D01*
X201934342Y-185028628D01*
X203291485Y-186314342D02*
X203148628Y-186385771D01*
X202862914Y-186385771D01*
X202720057Y-186314342D01*
X202648628Y-186242914D01*
X202577200Y-186100057D01*
X202577200Y-185671485D01*
X202648628Y-185528628D01*
X202720057Y-185457200D01*
X202862914Y-185385771D01*
X203148628Y-185385771D01*
X203291485Y-185457200D01*
X204577200Y-186385771D02*
X204577200Y-185600057D01*
X204505771Y-185457200D01*
X204362914Y-185385771D01*
X204077200Y-185385771D01*
X203934342Y-185457200D01*
X204577200Y-186314342D02*
X204434342Y-186385771D01*
X204077200Y-186385771D01*
X203934342Y-186314342D01*
X203862914Y-186171485D01*
X203862914Y-186028628D01*
X203934342Y-185885771D01*
X204077200Y-185814342D01*
X204434342Y-185814342D01*
X204577200Y-185742914D01*
X205934342Y-186385771D02*
X205934342Y-184885771D01*
X205934342Y-186314342D02*
X205791485Y-186385771D01*
X205505771Y-186385771D01*
X205362914Y-186314342D01*
X205291485Y-186242914D01*
X205220057Y-186100057D01*
X205220057Y-185671485D01*
X205291485Y-185528628D01*
X205362914Y-185457200D01*
X205505771Y-185385771D01*
X205791485Y-185385771D01*
X205934342Y-185457200D01*
X206291485Y-186528628D02*
X207434342Y-186528628D01*
X207791485Y-185385771D02*
X207791485Y-186885771D01*
X207791485Y-185457200D02*
X207934342Y-185385771D01*
X208220057Y-185385771D01*
X208362914Y-185457200D01*
X208434342Y-185528628D01*
X208505771Y-185671485D01*
X208505771Y-186100057D01*
X208434342Y-186242914D01*
X208362914Y-186314342D01*
X208220057Y-186385771D01*
X207934342Y-186385771D01*
X207791485Y-186314342D01*
X209791485Y-186314342D02*
X209648628Y-186385771D01*
X209362914Y-186385771D01*
X209220057Y-186314342D01*
X209148628Y-186242914D01*
X209077200Y-186100057D01*
X209077200Y-185671485D01*
X209148628Y-185528628D01*
X209220057Y-185457200D01*
X209362914Y-185385771D01*
X209648628Y-185385771D01*
X209791485Y-185457200D01*
X210434342Y-186385771D02*
X210434342Y-184885771D01*
X210434342Y-185457200D02*
X210577200Y-185385771D01*
X210862914Y-185385771D01*
X211005771Y-185457200D01*
X211077200Y-185528628D01*
X211148628Y-185671485D01*
X211148628Y-186100057D01*
X211077200Y-186242914D01*
X211005771Y-186314342D01*
X210862914Y-186385771D01*
X210577200Y-186385771D01*
X210434342Y-186314342D01*
D10*
D11*
X177002200Y-181507200D02*
X285002200Y-181507200D01*
D10*
D11*
X178362914Y-183614342D02*
X178577200Y-183685771D01*
X178934342Y-183685771D01*
X179077200Y-183614342D01*
X179148628Y-183542914D01*
X179220057Y-183400057D01*
X179220057Y-183257200D01*
X179148628Y-183114342D01*
X179077200Y-183042914D01*
X178934342Y-182971485D01*
X178648628Y-182900057D01*
X178505771Y-182828628D01*
X178434342Y-182757200D01*
X178362914Y-182614342D01*
X178362914Y-182471485D01*
X178434342Y-182328628D01*
X178505771Y-182257200D01*
X178648628Y-182185771D01*
X179005771Y-182185771D01*
X179220057Y-182257200D01*
X179862914Y-183685771D02*
X179862914Y-182185771D01*
X180505771Y-183685771D02*
X180505771Y-182900057D01*
X180434342Y-182757200D01*
X180291485Y-182685771D01*
X180077200Y-182685771D01*
X179934342Y-182757200D01*
X179862914Y-182828628D01*
X181791485Y-183614342D02*
X181648628Y-183685771D01*
X181362914Y-183685771D01*
X181220057Y-183614342D01*
X181148628Y-183471485D01*
X181148628Y-182900057D01*
X181220057Y-182757200D01*
X181362914Y-182685771D01*
X181648628Y-182685771D01*
X181791485Y-182757200D01*
X181862914Y-182900057D01*
X181862914Y-183042914D01*
X181148628Y-183185771D01*
X183077200Y-183614342D02*
X182934342Y-183685771D01*
X182648628Y-183685771D01*
X182505771Y-183614342D01*
X182434342Y-183471485D01*
X182434342Y-182900057D01*
X182505771Y-182757200D01*
X182648628Y-182685771D01*
X182934342Y-182685771D01*
X183077200Y-182757200D01*
X183148628Y-182900057D01*
X183148628Y-183042914D01*
X182434342Y-183185771D01*
X183577200Y-182685771D02*
X184148628Y-182685771D01*
X183791485Y-182185771D02*
X183791485Y-183471485D01*
X183862914Y-183614342D01*
X184005771Y-183685771D01*
X184148628Y-183685771D01*
X184648628Y-183542914D02*
X184720057Y-183614342D01*
X184648628Y-183685771D01*
X184577200Y-183614342D01*
X184648628Y-183542914D01*
X184648628Y-183685771D01*
X184648628Y-182757200D02*
X184720057Y-182828628D01*
X184648628Y-182900057D01*
X184577200Y-182828628D01*
X184648628Y-182757200D01*
X184648628Y-182900057D01*
D10*
D12*
D10*
D11*
D10*
D11*
D10*
D11*
D10*
D11*
D10*
D11*
X197002200Y-191507200D02*
X197002200Y-194507200D01*
D10*
D11*
X261002200Y-191507200D02*
X261002200Y-198007200D01*
D14*
X93980000Y-50800000D02*
X162560000Y-50800000D01*
X162560000Y-50800000D02*
X162560000Y-93980000D01*
X162560000Y-93980000D02*
X93980000Y-93980000D01*
X93980000Y-93980000D02*
X93980000Y-50800000D01*
D11*
X133772380Y-53268571D02*
X134105714Y-53268571D01*
X134248571Y-53792380D02*
X133772380Y-53792380D01*
X133772380Y-52792380D01*
X134248571Y-52792380D01*
X134677142Y-53268571D02*
X135010476Y-53268571D01*
X135153333Y-53792380D02*
X134677142Y-53792380D01*
X134677142Y-52792380D01*
X135153333Y-52792380D01*
X136296190Y-52887619D02*
X136343809Y-52840000D01*
X136439047Y-52792380D01*
X136677142Y-52792380D01*
X136772380Y-52840000D01*
X136820000Y-52887619D01*
X136867619Y-52982857D01*
X136867619Y-53078095D01*
X136820000Y-53220952D01*
X136248571Y-53792380D01*
X136867619Y-53792380D01*
X137486666Y-52792380D02*
X137581904Y-52792380D01*
X137677142Y-52840000D01*
X137724761Y-52887619D01*
X137772380Y-52982857D01*
X137820000Y-53173333D01*
X137820000Y-53411428D01*
X137772380Y-53601904D01*
X137724761Y-53697142D01*
X137677142Y-53744761D01*
X137581904Y-53792380D01*
X137486666Y-53792380D01*
X137391428Y-53744761D01*
X137343809Y-53697142D01*
X137296190Y-53601904D01*
X137248571Y-53411428D01*
X137248571Y-53173333D01*
X137296190Y-52982857D01*
X137343809Y-52887619D01*
X137391428Y-52840000D01*
X137486666Y-52792380D01*
X138772380Y-53792380D02*
X138200952Y-53792380D01*
X138486666Y-53792380D02*
X138486666Y-52792380D01*
X138391428Y-52935238D01*
X138296190Y-53030476D01*
X138200952Y-53078095D01*
X139867619Y-52792380D02*
X140105714Y-53792380D01*
X140296190Y-53078095D01*
X140486666Y-53792380D01*
X140724761Y-52792380D01*
X141105714Y-53792380D02*
X141105714Y-53125714D01*
X141105714Y-52792380D02*
X141058095Y-52840000D01*
X141105714Y-52887619D01*
X141153333Y-52840000D01*
X141105714Y-52792380D01*
X141105714Y-52887619D01*
X141581904Y-53125714D02*
X141581904Y-53792380D01*
X141581904Y-53220952D02*
X141629523Y-53173333D01*
X141724761Y-53125714D01*
X141867619Y-53125714D01*
X141962857Y-53173333D01*
X142010476Y-53268571D01*
X142010476Y-53792380D01*
X142343809Y-53125714D02*
X142724761Y-53125714D01*
X142486666Y-52792380D02*
X142486666Y-53649523D01*
X142534285Y-53744761D01*
X142629523Y-53792380D01*
X142724761Y-53792380D01*
X143439047Y-53744761D02*
X143343809Y-53792380D01*
X143153333Y-53792380D01*
X143058095Y-53744761D01*
X143010476Y-53649523D01*
X143010476Y-53268571D01*
X143058095Y-53173333D01*
X143153333Y-53125714D01*
X143343809Y-53125714D01*
X143439047Y-53173333D01*
X143486666Y-53268571D01*
X143486666Y-53363809D01*
X143010476Y-53459047D01*
X143915238Y-53792380D02*
X143915238Y-53125714D01*
X143915238Y-53316190D02*
X143962857Y-53220952D01*
X144010476Y-53173333D01*
X144105714Y-53125714D01*
X144200952Y-53125714D01*
X145248571Y-52887619D02*
X145296190Y-52840000D01*
X145391428Y-52792380D01*
X145629523Y-52792380D01*
X145724761Y-52840000D01*
X145772380Y-52887619D01*
X145820000Y-52982857D01*
X145820000Y-53078095D01*
X145772380Y-53220952D01*
X145200952Y-53792380D01*
X145820000Y-53792380D01*
X146439047Y-52792380D02*
X146534285Y-52792380D01*
X146629523Y-52840000D01*
X146677142Y-52887619D01*
X146724761Y-52982857D01*
X146772380Y-53173333D01*
X146772380Y-53411428D01*
X146724761Y-53601904D01*
X146677142Y-53697142D01*
X146629523Y-53744761D01*
X146534285Y-53792380D01*
X146439047Y-53792380D01*
X146343809Y-53744761D01*
X146296190Y-53697142D01*
X146248571Y-53601904D01*
X146200952Y-53411428D01*
X146200952Y-53173333D01*
X146248571Y-52982857D01*
X146296190Y-52887619D01*
X146343809Y-52840000D01*
X146439047Y-52792380D01*
X147153333Y-52887619D02*
X147200952Y-52840000D01*
X147296190Y-52792380D01*
X147534285Y-52792380D01*
X147629523Y-52840000D01*
X147677142Y-52887619D01*
X147724761Y-52982857D01*
X147724761Y-53078095D01*
X147677142Y-53220952D01*
X147105714Y-53792380D01*
X147724761Y-53792380D01*
X148058095Y-52792380D02*
X148677142Y-52792380D01*
X148343809Y-53173333D01*
X148486666Y-53173333D01*
X148581904Y-53220952D01*
X148629523Y-53268571D01*
X148677142Y-53363809D01*
X148677142Y-53601904D01*
X148629523Y-53697142D01*
X148581904Y-53744761D01*
X148486666Y-53792380D01*
X148200952Y-53792380D01*
X148105714Y-53744761D01*
X148058095Y-53697142D01*
X149867619Y-53411428D02*
X150629523Y-53411428D01*
X151867619Y-53792380D02*
X151867619Y-52792380D01*
X152200952Y-53506666D01*
X152534285Y-52792380D01*
X152534285Y-53792380D01*
X153010476Y-53792380D02*
X153010476Y-53125714D01*
X153010476Y-52792380D02*
X152962857Y-52840000D01*
X153010476Y-52887619D01*
X153058095Y-52840000D01*
X153010476Y-52792380D01*
X153010476Y-52887619D01*
X153486666Y-53792380D02*
X153486666Y-52792380D01*
X153915238Y-53792380D02*
X153915238Y-53268571D01*
X153867619Y-53173333D01*
X153772380Y-53125714D01*
X153629523Y-53125714D01*
X153534285Y-53173333D01*
X153486666Y-53220952D01*
X154391428Y-53792380D02*
X154391428Y-53125714D01*
X154391428Y-52792380D02*
X154343809Y-52840000D01*
X154391428Y-52887619D01*
X154439047Y-52840000D01*
X154391428Y-52792380D01*
X154391428Y-52887619D01*
X154867619Y-53792380D02*
X154867619Y-53125714D01*
X154867619Y-53316190D02*
X154915238Y-53220952D01*
X154962857Y-53173333D01*
X155058095Y-53125714D01*
X155153333Y-53125714D01*
X156248571Y-53792380D02*
X156248571Y-52792380D01*
X156629523Y-52792380D01*
X156724761Y-52840000D01*
X156772380Y-52887619D01*
X156820000Y-52982857D01*
X156820000Y-53125714D01*
X156772380Y-53220952D01*
X156724761Y-53268571D01*
X156629523Y-53316190D01*
X156248571Y-53316190D01*
X157677142Y-53792380D02*
X157677142Y-53268571D01*
X157629523Y-53173333D01*
X157534285Y-53125714D01*
X157343809Y-53125714D01*
X157248571Y-53173333D01*
X157677142Y-53744761D02*
X157581904Y-53792380D01*
X157343809Y-53792380D01*
X157248571Y-53744761D01*
X157200952Y-53649523D01*
X157200952Y-53554285D01*
X157248571Y-53459047D01*
X157343809Y-53411428D01*
X157581904Y-53411428D01*
X157677142Y-53363809D01*
X158010476Y-53125714D02*
X158391428Y-53125714D01*
X158153333Y-52792380D02*
X158153333Y-53649523D01*
X158200952Y-53744761D01*
X158296190Y-53792380D01*
X158391428Y-53792380D01*
X158724761Y-53792380D02*
X158724761Y-52792380D01*
X159153333Y-53792380D02*
X159153333Y-53268571D01*
X159105714Y-53173333D01*
X159010476Y-53125714D01*
X158867619Y-53125714D01*
X158772380Y-53173333D01*
X158724761Y-53220952D01*
X160058095Y-53792380D02*
X160058095Y-53268571D01*
X160010476Y-53173333D01*
X159915238Y-53125714D01*
X159724761Y-53125714D01*
X159629523Y-53173333D01*
X160058095Y-53744761D02*
X159962857Y-53792380D01*
X159724761Y-53792380D01*
X159629523Y-53744761D01*
X159581904Y-53649523D01*
X159581904Y-53554285D01*
X159629523Y-53459047D01*
X159724761Y-53411428D01*
X159962857Y-53411428D01*
X160058095Y-53363809D01*
X160534285Y-53792380D02*
X160534285Y-52792380D01*
X160629523Y-53411428D02*
X160915238Y-53792380D01*
X160915238Y-53125714D02*
X160534285Y-53506666D01*
%TO.C,R3*%
X153502380Y-63666666D02*
X153026190Y-64000000D01*
X153502380Y-64238095D02*
X152502380Y-64238095D01*
X152502380Y-63857142D01*
X152550000Y-63761904D01*
X152597619Y-63714285D01*
X152692857Y-63666666D01*
X152835714Y-63666666D01*
X152930952Y-63714285D01*
X152978571Y-63761904D01*
X153026190Y-63857142D01*
X153026190Y-64238095D01*
X152502380Y-63333333D02*
X152502380Y-62714285D01*
X152883333Y-63047619D01*
X152883333Y-62904761D01*
X152930952Y-62809523D01*
X152978571Y-62761904D01*
X153073809Y-62714285D01*
X153311904Y-62714285D01*
X153407142Y-62761904D01*
X153454761Y-62809523D01*
X153502380Y-62904761D01*
X153502380Y-63190476D01*
X153454761Y-63285714D01*
X153407142Y-63333333D01*
%TO.C,R1*%
X101162380Y-63666666D02*
X100686190Y-64000000D01*
X101162380Y-64238095D02*
X100162380Y-64238095D01*
X100162380Y-63857142D01*
X100210000Y-63761904D01*
X100257619Y-63714285D01*
X100352857Y-63666666D01*
X100495714Y-63666666D01*
X100590952Y-63714285D01*
X100638571Y-63761904D01*
X100686190Y-63857142D01*
X100686190Y-64238095D01*
X101162380Y-62714285D02*
X101162380Y-63285714D01*
X101162380Y-63000000D02*
X100162380Y-63000000D01*
X100305238Y-63095238D01*
X100400476Y-63190476D01*
X100448095Y-63285714D01*
%TO.C,C1*%
X121753333Y-85857142D02*
X121705714Y-85904761D01*
X121562857Y-85952380D01*
X121467619Y-85952380D01*
X121324761Y-85904761D01*
X121229523Y-85809523D01*
X121181904Y-85714285D01*
X121134285Y-85523809D01*
X121134285Y-85380952D01*
X121181904Y-85190476D01*
X121229523Y-85095238D01*
X121324761Y-85000000D01*
X121467619Y-84952380D01*
X121562857Y-84952380D01*
X121705714Y-85000000D01*
X121753333Y-85047619D01*
X122705714Y-85952380D02*
X122134285Y-85952380D01*
X122420000Y-85952380D02*
X122420000Y-84952380D01*
X122324761Y-85095238D01*
X122229523Y-85190476D01*
X122134285Y-85238095D01*
%TO.C,D2*%
X96892380Y-83218095D02*
X95892380Y-83218095D01*
X95892380Y-82980000D01*
X95940000Y-82837142D01*
X96035238Y-82741904D01*
X96130476Y-82694285D01*
X96320952Y-82646666D01*
X96463809Y-82646666D01*
X96654285Y-82694285D01*
X96749523Y-82741904D01*
X96844761Y-82837142D01*
X96892380Y-82980000D01*
X96892380Y-83218095D01*
X95987619Y-82265714D02*
X95940000Y-82218095D01*
X95892380Y-82122857D01*
X95892380Y-81884761D01*
X95940000Y-81789523D01*
X95987619Y-81741904D01*
X96082857Y-81694285D01*
X96178095Y-81694285D01*
X96320952Y-81741904D01*
X96892380Y-82313333D01*
X96892380Y-81694285D01*
%TO.C,D1*%
X97692380Y-56618095D02*
X96692380Y-56618095D01*
X96692380Y-56380000D01*
X96740000Y-56237142D01*
X96835238Y-56141904D01*
X96930476Y-56094285D01*
X97120952Y-56046666D01*
X97263809Y-56046666D01*
X97454285Y-56094285D01*
X97549523Y-56141904D01*
X97644761Y-56237142D01*
X97692380Y-56380000D01*
X97692380Y-56618095D01*
X97692380Y-55094285D02*
X97692380Y-55665714D01*
X97692380Y-55380000D02*
X96692380Y-55380000D01*
X96835238Y-55475238D01*
X96930476Y-55570476D01*
X96978095Y-55665714D01*
%TO.C,U1*%
X126238095Y-67172380D02*
X126238095Y-67981904D01*
X126285714Y-68077142D01*
X126333333Y-68124761D01*
X126428571Y-68172380D01*
X126619047Y-68172380D01*
X126714285Y-68124761D01*
X126761904Y-68077142D01*
X126809523Y-67981904D01*
X126809523Y-67172380D01*
X127809523Y-68172380D02*
X127238095Y-68172380D01*
X127523809Y-68172380D02*
X127523809Y-67172380D01*
X127428571Y-67315238D01*
X127333333Y-67410476D01*
X127238095Y-67458095D01*
%TO.C,R2*%
X100912380Y-73826666D02*
X100436190Y-74160000D01*
X100912380Y-74398095D02*
X99912380Y-74398095D01*
X99912380Y-74017142D01*
X99960000Y-73921904D01*
X100007619Y-73874285D01*
X100102857Y-73826666D01*
X100245714Y-73826666D01*
X100340952Y-73874285D01*
X100388571Y-73921904D01*
X100436190Y-74017142D01*
X100436190Y-74398095D01*
X100007619Y-73445714D02*
X99960000Y-73398095D01*
X99912380Y-73302857D01*
X99912380Y-73064761D01*
X99960000Y-72969523D01*
X100007619Y-72921904D01*
X100102857Y-72874285D01*
X100198095Y-72874285D01*
X100340952Y-72921904D01*
X100912380Y-73493333D01*
X100912380Y-72874285D01*
%TO.C,C2*%
X140808333Y-85127142D02*
X140760714Y-85174761D01*
X140617857Y-85222380D01*
X140522619Y-85222380D01*
X140379761Y-85174761D01*
X140284523Y-85079523D01*
X140236904Y-84984285D01*
X140189285Y-84793809D01*
X140189285Y-84650952D01*
X140236904Y-84460476D01*
X140284523Y-84365238D01*
X140379761Y-84270000D01*
X140522619Y-84222380D01*
X140617857Y-84222380D01*
X140760714Y-84270000D01*
X140808333Y-84317619D01*
X141189285Y-84317619D02*
X141236904Y-84270000D01*
X141332142Y-84222380D01*
X141570238Y-84222380D01*
X141665476Y-84270000D01*
X141713095Y-84317619D01*
X141760714Y-84412857D01*
X141760714Y-84508095D01*
X141713095Y-84650952D01*
X141141666Y-85222380D01*
X141760714Y-85222380D01*
%TO.C,R4*%
X154502380Y-73826666D02*
X154026190Y-74160000D01*
X154502380Y-74398095D02*
X153502380Y-74398095D01*
X153502380Y-74017142D01*
X153550000Y-73921904D01*
X153597619Y-73874285D01*
X153692857Y-73826666D01*
X153835714Y-73826666D01*
X153930952Y-73874285D01*
X153978571Y-73921904D01*
X154026190Y-74017142D01*
X154026190Y-74398095D01*
X153835714Y-72969523D02*
X154502380Y-72969523D01*
X153454761Y-73207619D02*
X154169047Y-73445714D01*
X154169047Y-72826666D01*
%TO.C,J1*%
X126666666Y-62952380D02*
X126666666Y-63666666D01*
X126619047Y-63809523D01*
X126523809Y-63904761D01*
X126380952Y-63952380D01*
X126285714Y-63952380D01*
X127666666Y-63952380D02*
X127095238Y-63952380D01*
X127380952Y-63952380D02*
X127380952Y-62952380D01*
X127285714Y-63095238D01*
X127190476Y-63190476D01*
X127095238Y-63238095D01*
D15*
%TO.C,R3*%
X150665000Y-63272936D02*
X150665000Y-63727064D01*
X152135000Y-63272936D02*
X152135000Y-63727064D01*
%TO.C,R1*%
X98325000Y-63272936D02*
X98325000Y-63727064D01*
X99795000Y-63272936D02*
X99795000Y-63727064D01*
%TO.C,C1*%
X122181252Y-84555000D02*
X121658748Y-84555000D01*
X122181252Y-83085000D02*
X121658748Y-83085000D01*
%TO.C,D2*%
X97125000Y-80880000D02*
X97125000Y-84940000D01*
X97125000Y-84940000D02*
X99395000Y-84940000D01*
X99395000Y-84940000D02*
X99395000Y-80880000D01*
%TO.C,D1*%
X97925000Y-58340000D02*
X100195000Y-58340000D01*
X97925000Y-54280000D02*
X97925000Y-58340000D01*
X100195000Y-58340000D02*
X100195000Y-54280000D01*
%TO.C,U1*%
X127000000Y-73680000D02*
X128950000Y-73680000D01*
X127000000Y-68560000D02*
X128950000Y-68560000D01*
X127000000Y-73680000D02*
X125050000Y-73680000D01*
X127000000Y-68560000D02*
X123550000Y-68560000D01*
%TO.C,R2*%
X99545000Y-73432936D02*
X99545000Y-73887064D01*
X98075000Y-73432936D02*
X98075000Y-73887064D01*
%TO.C,C2*%
X143460000Y-83955000D02*
X143460000Y-82085000D01*
X143460000Y-82085000D02*
X139375000Y-82085000D01*
X139375000Y-83955000D02*
X143460000Y-83955000D01*
%TO.C,R4*%
X153135000Y-73432936D02*
X153135000Y-73887064D01*
X151665000Y-73432936D02*
X151665000Y-73887064D01*
%TO.C,J1*%
X121920000Y-62230000D02*
X132080000Y-62230000D01*
X121920000Y-54610000D02*
X121920000Y-62230000D01*
X132080000Y-54610000D02*
X121920000Y-54610000D01*
X121920000Y-55880000D02*
X132080000Y-55880000D01*
X132080000Y-62230000D02*
X132080000Y-54610000D01*
%TD*%
M02*
